/* XPM */
static char * guymager_128_xpm[] = {
"32 32 364 2",
"  	c None",
". 	c #BBBBBB",
"+ 	c #B2B2B2",
"@ 	c #A7A7A7",
"# 	c #C1C1C1",
"$ 	c #B4B4B4",
"% 	c #BEBEBE",
"& 	c #C3C3C3",
"* 	c #252525",
"= 	c #DADAD9",
"- 	c #E0E0DE",
"; 	c #C2C2C2",
"> 	c #C5C5C5",
", 	c #D1D1D1",
"' 	c #B6B6B6",
") 	c #B8B8B8",
"! 	c #DAD3D9",
"~ 	c #D9D7D9",
"{ 	c #505050",
"] 	c #49494A",
"^ 	c #313231",
"/ 	c #D3D3D3",
"( 	c #E3E3E2",
"_ 	c #C9C9C9",
": 	c #C9C9CA",
"< 	c #DCDCDC",
"[ 	c #D6D6D6",
"} 	c #C6C6C6",
"| 	c #D2D2D2",
"1 	c #D3D4D4",
"2 	c #C9C6D5",
"3 	c #E1D4DF",
"4 	c #DFDEE0",
"5 	c #E1DFE1",
"6 	c #E2E1E2",
"7 	c #6B6C6B",
"8 	c #4B4B4B",
"9 	c #4D4D4D",
"0 	c #797B79",
"a 	c #ADADAE",
"b 	c #A9A9A9",
"c 	c #D0D0D0",
"d 	c #E2E2E2",
"e 	c #D4D4D4",
"f 	c #D9D9D9",
"g 	c #CACACA",
"h 	c #C3C3CB",
"i 	c #E2D4E2",
"j 	c #E1E0E0",
"k 	c #E2E0E2",
"l 	c #E3E2E3",
"m 	c #E8E8E8",
"n 	c #5D5E5E",
"o 	c #484949",
"p 	c #C6C8C8",
"q 	c #CBCACE",
"r 	c #98999A",
"s 	c #7D7E7D",
"t 	c #AFAFAF",
"u 	c #DBDBDB",
"v 	c #D7D7D7",
"w 	c #CECECE",
"x 	c #D8D8D8",
"y 	c #D1CAD5",
"z 	c #DFDEDF",
"A 	c #E4E3E4",
"B 	c #E4E4E4",
"C 	c #C8C8C8",
"D 	c #383938",
"E 	c #8F9090",
"F 	c #C8C8CB",
"G 	c #373736",
"H 	c #6B6C6C",
"I 	c #676867",
"J 	c #BDBDBD",
"K 	c #DFDFDF",
"L 	c #DADADA",
"M 	c #C4C4C4",
"N 	c #CDCECD",
"O 	c #DEDEDE",
"P 	c #E6E6E6",
"Q 	c #6D6E6D",
"R 	c #404140",
"S 	c #828282",
"T 	c #A5A6A7",
"U 	c #292929",
"V 	c #CFCFCF",
"W 	c #D5D5D5",
"X 	c #9F9F9F",
"Y 	c #E1E1E1",
"Z 	c #E3E4E2",
"` 	c #FFFFFF",
" .	c #484948",
"..	c #1F1F1F",
"+.	c #BABCBD",
"@.	c #CFD1D2",
"#.	c #DBDDDE",
"$.	c #DADBDD",
"%.	c #D3D5D6",
"&.	c #CACBCD",
"*.	c #C6C8C9",
"=.	c #C4C7CA",
"-.	c #C7C9CA",
";.	c #D5D6D8",
">.	c #949698",
",.	c #BEBFBF",
"'.	c #E8DED9",
").	c #DEDCDC",
"!.	c #D8D8DA",
"~.	c #EFF1F1",
"{.	c #EFF2F0",
"].	c #F6F8F8",
"^.	c #292A2A",
"/.	c #AF9075",
"(.	c #AF9279",
"_.	c #AF9177",
":.	c #B2947A",
"<.	c #B3957B",
"[.	c #AE9075",
"}.	c #A98B70",
"|.	c #A5886F",
"1.	c #A78B73",
"2.	c #B19476",
"3.	c #B09178",
"4.	c #AC8E75",
"5.	c #A58971",
"6.	c #A38871",
"7.	c #AD9174",
"8.	c #A98B72",
"9.	c #AE8D71",
"0.	c #AE8E72",
"a.	c #AC8A6E",
"b.	c #B8977C",
"c.	c #5D4E3E",
"d.	c #BE9B7E",
"e.	c #BF9D7F",
"f.	c #BF9C7F",
"g.	c #BE9C7F",
"h.	c #C19D80",
"i.	c #C49E82",
"j.	c #C19C7F",
"k.	c #BE9B7D",
"l.	c #C29F81",
"m.	c #B59375",
"n.	c #BC9979",
"o.	c #BB9777",
"p.	c #C0987A",
"q.	c #918B5F",
"r.	c #4E7838",
"s.	c #37722B",
"t.	c #37712A",
"u.	c #4A7736",
"v.	c #8D8A5D",
"w.	c #BF997A",
"x.	c #BC9879",
"y.	c #BB9878",
"z.	c #C09C7C",
"A.	c #AC896B",
"B.	c #B99373",
"C.	c #B89372",
"D.	c #B89271",
"E.	c #BD9473",
"F.	c #58793C",
"G.	c #07640E",
"H.	c #0F6613",
"I.	c #0A6410",
"J.	c #0B6511",
"K.	c #07630E",
"L.	c #73804C",
"M.	c #B99372",
"N.	c #BD9775",
"O.	c #A38061",
"P.	c #B6906D",
"Q.	c #B58E6B",
"R.	c #B58F6B",
"S.	c #908557",
"T.	c #07640F",
"U.	c #0E6512",
"V.	c #386F28",
"W.	c #8A8354",
"X.	c #838150",
"Y.	c #1E691B",
"Z.	c #1E691A",
"`.	c #3D702A",
" +	c #BB8F6D",
".+	c #B68E6B",
"++	c #B68F6D",
"@+	c #B9926F",
"#+	c #9E7E61",
"$+	c #B38B67",
"%+	c #B48B67",
"&+	c #B38A66",
"*+	c #B58A67",
"=+	c #4C7331",
"-+	c #116614",
";+	c #BA8A68",
">+	c #B48965",
",+	c #BC8B69",
"'+	c #C58D6F",
")+	c #C28C6D",
"!+	c #B18864",
"~+	c #B28864",
"{+	c #B28965",
"]+	c #B89371",
"^+	c #967659",
"/+	c #B08560",
"(+	c #AF855F",
"_+	c #B0855F",
":+	c #B08661",
"<+	c #B38460",
"[+	c #336C23",
"}+	c #306C22",
"|+	c #B58561",
"1+	c #8A7D4C",
"2+	c #00620B",
"3+	c #04630D",
"4+	c #006108",
"5+	c #BA8763",
"6+	c #B0845E",
"7+	c #B08660",
"8+	c #B18661",
"9+	c #B08A69",
"0+	c #8F6F52",
"a+	c #AD815A",
"b+	c #AE815A",
"c+	c #AD8159",
"d+	c #B07F59",
"e+	c #3A6C25",
"f+	c #26691D",
"g+	c #B4825D",
"h+	c #897A49",
"i+	c #00630C",
"j+	c #0A6510",
"k+	c #05640E",
"l+	c #B6815C",
"m+	c #AC7F58",
"n+	c #A78160",
"o+	c #8B6B4F",
"p+	c #AA7C53",
"q+	c #AA7C54",
"r+	c #AB7D54",
"s+	c #AA7B52",
"t+	c #5F7033",
"u+	c #096510",
"v+	c #94784A",
"w+	c #B27E57",
"x+	c #BD7F5C",
"y+	c #587031",
"z+	c #05640F",
"A+	c #B47D56",
"B+	c #AA7B53",
"C+	c #AA7C52",
"D+	c #A97B52",
"E+	c #9F7958",
"F+	c #876649",
"G+	c #A8784E",
"H+	c #A8774D",
"I+	c #A7784E",
"J+	c #A5774D",
"K+	c #106613",
"L+	c #2D691E",
"M+	c #1C6718",
"N+	c #0A6511",
"O+	c #04640F",
"P+	c #B17951",
"Q+	c #A8794E",
"R+	c #977150",
"S+	c #816043",
"T+	c #A57449",
"U+	c #A47449",
"V+	c #A47349",
"W+	c #907141",
"X+	c #216719",
"Y+	c #076510",
"Z+	c #096511",
"`+	c #386921",
" @	c #977244",
".@	c #A67549",
"+@	c #A67449",
"@@	c #8E6849",
"#@	c #78593E",
"$@	c #A07146",
"%@	c #9E6F46",
"&@	c #9E6F45",
"*@	c #A46F48",
"=@	c #926E41",
"-@	c #806D3B",
";@	c #846D3C",
">@	c #9F7046",
",@	c #A26F47",
"'@	c #9F7147",
")@	c #9E7046",
"!@	c #856244",
"~@	c #644831",
"{@	c #8D6139",
"]@	c #91643C",
"^@	c #95683F",
"/@	c #986A41",
"(@	c #9B6C43",
"_@	c #9C6D45",
":@	c #9D6F45",
"<@	c #9E6E45",
"[@	c #A17147",
"}@	c #A07047",
"|@	c #A17248",
"1@	c #A07046",
"2@	c #92643D",
"3@	c #8D613A",
"4@	c #73553A",
"5@	c #694A2F",
"6@	c #906239",
"7@	c #95673D",
"8@	c #9C6D42",
"9@	c #A16F46",
"0@	c #A27147",
"a@	c #A37349",
"b@	c #A37348",
"c@	c #A37248",
"d@	c #A47348",
"e@	c #9C6C42",
"f@	c #91633B",
"g@	c #785639",
"h@	c #7D5839",
"i@	c #A17045",
"j@	c #A27248",
"k@	c #A6754A",
"l@	c #926A47",
"m@	c #886240",
"n@	c #A7754A",
"o@	c #A6764A",
"p@	c #A47549",
"q@	c #A27347",
"r@	c #A17047",
"s@	c #A07147",
"t@	c #A27247",
"u@	c #AB784C",
"v@	c #AA794D",
"w@	c #A37750",
"x@	c #986D47",
"y@	c #AC7A4D",
"z@	c #AD7A4E",
"A@	c #AB794D",
"B@	c #A7774B",
"C@	c #A47448",
"D@	c #A8774B",
"E@	c #A9774C",
"F@	c #A7764A",
"G@	c #A6754B",
"H@	c #AA784C",
"I@	c #AE7B4E",
"J@	c #B28257",
"K@	c #AA7A4F",
"L@	c #B47F51",
"M@	c #B48052",
"N@	c #B37F52",
"O@	c #B37F51",
"P@	c #B38052",
"Q@	c #B27F51",
"R@	c #B38051",
"S@	c #BC895C",
"T@	c #976D47",
"U@	c #966A44",
"V@	c #9B714D",
"W@	c #4E3722",
"                                                                ",
"                                                                ",
"                    . + @                                       ",
"                # . $ % &               *                       ",
"            = - ; > , ' , )   ! ~       { ] ^                   ",
"        / ( _ : < > [ } | 1 2 3 4 5 6 7 8 9 0 a                 ",
"      b ' # c / d e f < g } h i j k l m n o p q r s             ",
"        t , e m / < u u v w x y z A B d C D E F G H I           ",
"        > J d K u L f x x v M N   [ d O u P Q R S T U           ",
"          V d W f x x | / / ; ,   X Y u x Z ` W  .U ..          ",
"          +.@.#.$.%.@.&.*.=.-.;.>.,.'.).!.~.{.].` ^.            ",
"          /.(._.:.<.[.}.|.1.2.2.3.4.5.6.7.8.9.0.a.b.c.          ",
"          d.e.e.e.e.f.f.f.g.h.i.i.j.k.k.k.k.k.f.e.l.            ",
"          m.n.n.n.n.n.o.p.q.r.s.t.u.v.w.x.y.o.x.n.z.            ",
"          A.B.B.B.C.D.E.F.G.H.I.J.H.K.L.M.D.D.B.B.N.            ",
"          O.P.P.P.Q.R.S.T.U.V.W.X.Y.Z.`. +.+++++P.@+            ",
"          #+$+%+%+&+*+=+H.-+;+>+,+'+'+)+!+~+{+%+$+]+            ",
"          ^+/+(+_+:+<+[+H.}+|+1+2+3+3+4+5+6+7+:+8+9+            ",
"          0+a+b+c+b+d+e+H.f+g+h+i+j+H.k+l+m+m+m+a+n+            ",
"          o+p+q+q+r+s+t+U.u+v+w+x+y+H.z+A+B+C+D+q+E+            ",
"          F+G+G+G+H+I+J+K+H.J.L+M+N+H.O+P+G+I+I+Q+R+            ",
"          S+T+U+U+U+U+V+W+X+Y+N+Z+Y+`+ @.@V+T+.@+@@@            ",
"          #@$@%@%@&@%@%@&@*@=@-@;@>@,@&@'@&@)@'@>@!@            ",
"          ~@{@]@^@/@(@_@:@)@%@<@[@[@[@}@|@|@1@2@3@4@            ",
"          5@6@7@8@9@0@a@b@b@c@c@b@b@c@d@V+U+a@e@f@g@            ",
"          h@i@0@b@b@c@b@a@b@j@j@c@b@j@c@b@a@a@k@+@l@            ",
"          m@n@k@o@p@q@r@$@1@1@$@s@>@>@1@1@t@T+u@v@w@            ",
"          x@y@z@A@B@k@C@d@k@D@D@D@E@E@D@F@G@H@I@I@J@            ",
"          K@L@M@M@N@O@P@O@Q@O@M@O@M@M@R@Q@O@P@M@L@S@            ",
"          T@U@U@U@U@U@U@U@U@U@U@U@U@U@U@U@U@U@U@U@V@W@          ",
"                                                                ",
"                                                                "};
